# xmcd
#
# Track frame offsets:
# 150
# 12412
# 61270
# 79995
# 93045
# 105972
# 134695
# 150757
# 164785
# 194665
# 208775
# 222317
# 271137
# 284280
#
# Disc length: 3970 seconds
#
#
# Revision: 1
# Processed by: cddbd v1.5.1PL0 Copyright (c) Steve Scherf et al.
# Submitted via: FreeRIP 2.90 
#
DISCID=c50f800e
DTITLE=Miles Davis - Raros Collection - Soh O Melhor De
DYEAR=2004
DGENRE=Jazz
TTITLE0=Round Midnight
TTITLE1=So What
TTITLE2=Out of Nowhere
TTITLE3=Baby, Won't You Make Up Your Mind
TTITLE4=Don't Sing Me The Blues
TTITLE5=No Blues
TTITLE6=Autumn Leaves
TTITLE7=Straight, No Chaser
TTITLE8=Bye Bye Blackbird
TTITLE9=I've Always Got The Blues
TTITLE10=Don't Explain To Me Baby
TTITLE11=What Is This Thing Called Love?
TTITLE12=Scrapple From The Apple
TTITLE13=Night In Tunisia
EXTD=
EXTT0=
EXTT1=
EXTT2=
EXTT3=
EXTT4=
EXTT5=
EXTT6=
EXTT7=
EXTT8=
EXTT9=
EXTT10=
EXTT11=
EXTT12=
EXTT13=
PLAYORDER=
